<svg width="32" height="31" viewBox="0 0 32 31" fill="none" xmlns="http://www.w3.org/2000/svg">
<path d="M16.2583 16.7916L15.0958 17.9541C14.8589 18.1909 14.7405 18.4923 14.7405 18.8583C14.7405 19.2242 14.8589 19.5256 15.0958 19.7624C15.3326 19.9992 15.6339 20.1176 15.9999 20.1176C16.3659 20.1176 16.6673 19.9992 16.9041 19.7624L20.2624 16.4041C20.5208 16.1458 20.6499 15.8444 20.6499 15.4999C20.6499 15.1555 20.5208 14.8541 20.2624 14.5958L16.9041 11.2374C16.6673 11.0006 16.3659 10.8822 15.9999 10.8822C15.6339 10.8822 15.3326 11.0006 15.0958 11.2374C14.8589 11.4742 14.7405 11.7756 14.7405 12.1416C14.7405 12.5076 14.8589 12.8089 15.0958 13.0458L16.2583 14.2083H12.1249C11.7589 14.2083 11.452 14.3323 11.204 14.5803C10.956 14.8283 10.8324 15.1348 10.8333 15.4999C10.8333 15.8659 10.9573 16.1729 11.2053 16.4209C11.4533 16.6689 11.7598 16.7924 12.1249 16.7916H16.2583ZM15.9999 28.4166C14.2131 28.4166 12.5339 28.0773 10.9624 27.3988C9.39089 26.7202 8.02388 25.8001 6.86138 24.6385C5.69888 23.476 4.77878 22.1089 4.10109 20.5374C3.42339 18.9659 3.08411 17.2867 3.08325 15.4999C3.08325 13.7131 3.42253 12.0339 4.10109 10.4624C4.77964 8.89089 5.69974 7.52388 6.86138 6.36138C8.02388 5.19888 9.39089 4.27878 10.9624 3.60109C12.5339 2.92339 14.2131 2.58411 15.9999 2.58325C17.7867 2.58325 19.4659 2.92253 21.0374 3.60109C22.6089 4.27964 23.976 5.19974 25.1385 6.36138C26.301 7.52388 27.2215 8.89089 27.9 10.4624C28.5786 12.0339 28.9174 13.7131 28.9166 15.4999C28.9166 17.2867 28.5773 18.9659 27.8988 20.5374C27.2202 22.1089 26.3001 23.476 25.1385 24.6385C23.976 25.801 22.6089 26.7215 21.0374 27.4C19.4659 28.0786 17.7867 28.4174 15.9999 28.4166ZM15.9999 25.8333C18.8846 25.8333 21.328 24.8322 23.3301 22.8301C25.3322 20.828 26.3333 18.3846 26.3333 15.4999C26.3333 12.6152 25.3322 10.1718 23.3301 8.16971C21.328 6.16763 18.8846 5.16659 15.9999 5.16659C13.1152 5.16659 10.6718 6.16763 8.66971 8.16971C6.66763 10.1718 5.66659 12.6152 5.66659 15.4999C5.66659 18.3846 6.66763 20.828 8.66971 22.8301C10.6718 24.8322 13.1152 25.8333 15.9999 25.8333Z" fill="#00A5D1"/>
</svg>
