<svg width="32" height="31" viewBox="0 0 32 31" fill="none" xmlns="http://www.w3.org/2000/svg">
<path d="M12.1251 20.8862L7.64302 16.4041C7.40151 16.1626 7.07395 16.0269 6.7324 16.0269C6.39085 16.0269 6.06329 16.1626 5.82177 16.4041C5.58026 16.6456 5.44458 16.9732 5.44458 17.3147C5.44458 17.4839 5.47789 17.6513 5.54261 17.8076C5.60733 17.9638 5.70219 18.1058 5.82177 18.2254L11.2209 23.6245C11.7247 24.1283 12.5384 24.1283 13.0422 23.6245L26.708 9.9587C26.9495 9.71718 27.0852 9.38962 27.0852 9.04807C27.0852 8.70652 26.9495 8.37896 26.708 8.13745C26.4665 7.89593 26.1389 7.76025 25.7974 7.76025C25.4558 7.76025 25.1283 7.89593 24.8868 8.13745L12.1251 20.8862Z" fill="white"/>
</svg>
