<svg width="99" height="99" viewBox="0 0 99 99" fill="none" xmlns="http://www.w3.org/2000/svg">
<rect width="99" height="99" rx="49.5" fill="white"/>
<path d="M49 27.5C35.25 27.5 24 36.5 24 47.5C24 52.75 26.5 57.75 31 61.25C31 62.75 30 66.75 24 72.5C24 72.5 32.75 72.5 40.25 66.25C43 67 46 67.5 49 67.5C62.75 67.5 74 58.5 74 47.5C74 36.5 62.75 27.5 49 27.5ZM51.5 57.5H46.5V52.5H51.5V57.5ZM56 45C55.25 46 54.25 46.5 53.25 47C52.5 47.5 52.25 47.75 52 48.25C51.5 48.75 51.5 49.25 51.5 50H46.5C46.5 48.75 46.75 48 47.25 47.25C47.75 46.75 48.75 46 50 45.25C50.75 45 51.25 44.5 51.5 44C51.75 43.5 52 42.75 52 42.25C52 41.5 51.75 41 51.25 40.5C50.75 40 50 39.75 49.25 39.75C48.5 39.75 48 40 47.5 40.25C47 40.5 46.75 41 46.75 41.75H41.75C42 40 42.75 38.5 44 37.5C45.25 36.5 47 36.25 49.25 36.25C51.5 36.25 53.5 36.75 54.75 37.75C56 38.75 56.75 40.25 56.75 42C57 43 56.75 44 56 45Z" fill="#29AAE1"/>
</svg>
