<svg width="31" height="31" viewBox="0 0 31 31" fill="none" xmlns="http://www.w3.org/2000/svg">
<path d="M20.473 10.5142C20.9767 10.5142 21.4676 10.5529 21.9455 10.6175C21.0671 6.78125 17.0371 3.875 12.1934 3.875C6.70381 3.875 2.24756 7.595 2.24756 12.1804C2.24756 14.8283 3.73297 17.1662 6.04506 18.6904L4.74047 21.3125L8.30547 19.7754C9.06756 20.0467 9.86839 20.2662 10.7209 20.3825C10.6046 19.8787 10.5401 19.3621 10.5401 18.8196C10.5271 14.2471 14.9834 10.5142 20.473 10.5142ZM15.5001 7.60792C15.6629 7.60792 15.8241 7.63999 15.9746 7.70231C16.125 7.76462 16.2617 7.85596 16.3769 7.9711C16.492 8.08625 16.5834 8.22295 16.6457 8.37339C16.708 8.52383 16.7401 8.68508 16.7401 8.84792C16.7401 9.01076 16.708 9.172 16.6457 9.32244C16.5834 9.47289 16.492 9.60958 16.3769 9.72473C16.2617 9.83987 16.125 9.93121 15.9746 9.99353C15.8241 10.0558 15.6629 10.0879 15.5001 10.0879C15.1712 10.0879 14.8558 9.95727 14.6232 9.72473C14.3907 9.49218 14.2601 9.17678 14.2601 8.84792C14.2601 8.51905 14.3907 8.20365 14.6232 7.9711C14.8558 7.73856 15.1712 7.60792 15.5001 7.60792ZM8.87381 10.1008C8.54494 10.1008 8.22954 9.97019 7.997 9.73765C7.76445 9.5051 7.63381 9.1897 7.63381 8.86083C7.63381 8.53196 7.76445 8.21657 7.997 7.98402C8.22954 7.75148 8.54494 7.62083 8.87381 7.62083C9.20268 7.62083 9.51807 7.75148 9.75062 7.98402C9.98317 8.21657 10.1138 8.53196 10.1138 8.86083C10.1138 9.1897 9.98317 9.5051 9.75062 9.73765C9.51807 9.97019 9.20268 10.1008 8.87381 10.1008Z" fill="white"/>
<path d="M28.7525 18.8193C28.7525 15.151 25.0454 12.1802 20.4729 12.1802C15.9004 12.1802 12.1934 15.151 12.1934 18.8193C12.1934 22.4877 15.9004 25.4585 20.4729 25.4585C21.2221 25.4585 21.9454 25.3552 22.63 25.2002L27.0992 27.1248L25.5492 24.0248C27.4867 22.8106 28.7525 20.9506 28.7525 18.8193ZM17.98 18.406C17.7348 18.406 17.495 18.3333 17.2911 18.197C17.0872 18.0608 16.9283 17.8671 16.8344 17.6405C16.7406 17.414 16.716 17.1646 16.7639 16.9241C16.8117 16.6836 16.9298 16.4626 17.1032 16.2892C17.2766 16.1158 17.4976 15.9977 17.7381 15.9498C17.9787 15.902 18.228 15.9265 18.4546 16.0204C18.6811 16.1143 18.8748 16.2732 19.011 16.4771C19.1473 16.681 19.22 16.9208 19.22 17.166C19.2329 17.8506 18.6646 18.406 17.98 18.406ZM22.9529 18.406C22.6241 18.406 22.3087 18.2754 22.0761 18.0428C21.8436 17.8103 21.7129 17.4949 21.7129 17.166C21.7129 16.8371 21.8436 16.5217 22.0761 16.2892C22.3087 16.0567 22.6241 15.926 22.9529 15.926C23.2818 15.926 23.5972 16.0567 23.8298 16.2892C24.0623 16.5217 24.1929 16.8371 24.1929 17.166C24.1929 17.4949 24.0623 17.8103 23.8298 18.0428C23.5972 18.2754 23.2818 18.406 22.9529 18.406Z" fill="white"/>
</svg>
